<?xml version="1.0" standalone="no"?>
<!DOCTYPE svg PUBLIC "-//W3C//DTD SVG 20010904//EN"
 "http://www.w3.org/TR/2001/REC-SVG-20010904/DTD/svg10.dtd">
<svg version="1.0" xmlns="http://www.w3.org/2000/svg"
 width="1193.000000pt" height="353.000000pt" viewBox="0 0 1193.000000 353.000000"
 preserveAspectRatio="xMidYMid meet">

<g transform="translate(0.000000,353.000000) scale(0.100000,-0.100000)"
fill="#000000" stroke="none">
<path d="M1556 3367 c-52 -50 -60 -107 -19 -154 83 -93 229 -18 199 102 -4 14
-21 39 -38 55 -44 43 -94 42 -142 -3z"/>
<path d="M2225 3225 c-27 -28 -35 -44 -35 -72 0 -87 78 -140 159 -107 32 13
43 24 57 59 21 57 7 105 -40 135 -52 32 -99 27 -141 -15z"/>
<path d="M892 3151 c-66 -64 -43 -163 45 -192 70 -23 143 37 143 116 0 29 -8
45 -34 71 -28 28 -41 34 -79 34 -35 0 -50 -6 -75 -29z"/>
<path d="M2792 2804 c-55 -38 -67 -117 -26 -164 55 -62 135 -58 183 8 52 73
-3 172 -96 172 -21 0 -49 -7 -61 -16z"/>
<path d="M445 2662 c-35 -12 -52 -26 -69 -59 -55 -109 56 -208 161 -143 42 25
62 85 43 130 -21 51 -89 87 -135 72z"/>
<path d="M201 1928 c-37 -38 -45 -59 -37 -103 8 -43 68 -95 109 -95 119 0 161
161 56 216 -48 24 -93 18 -128 -18z"/>
<path d="M343 1218 c-85 -60 -57 -184 46 -204 41 -9 96 21 115 61 22 45 20 76
-7 116 -35 52 -102 63 -154 27z"/>
<path d="M2670 767 c-14 -7 -33 -29 -44 -51 -48 -97 55 -192 158 -145 28 13
56 64 56 101 0 33 -36 87 -66 98 -34 13 -74 12 -104 -3z"/>
<path d="M783 654 c-36 -18 -63 -67 -63 -114 0 -48 55 -100 107 -100 115 0
164 135 73 200 -40 28 -80 33 -117 14z"/>
<path d="M2116 389 c-74 -20 -104 -94 -67 -165 24 -44 42 -54 102 -54 66 0
118 65 105 133 -11 61 -79 102 -140 86z"/>
<path d="M1404 334 c-65 -32 -84 -118 -38 -173 65 -77 180 -44 200 57 16 81
-85 154 -162 116z"/>
</g>
</svg>
